<svg width="33" height="33" viewBox="0 0 33 33" fill="none" xmlns="http://www.w3.org/2000/svg">
<rect width="33" height="33" rx="10" fill="url(#paint0_linear_311_7)"/>
<mask id="path-2-inside-1_311_7" fill="white">
<path d="M17.7934 25.648L26.1023 17.2959L17.7934 8.94382C17.7184 8.84528 17.6231 8.76401 17.5139 8.70551C17.4047 8.64702 17.2842 8.61267 17.1606 8.60478C17.037 8.5969 16.9132 8.61566 16.7974 8.6598C16.6817 8.70395 16.5768 8.77244 16.4899 8.86065C16.4029 8.94885 16.3359 9.05471 16.2934 9.17106C16.2509 9.2874 16.234 9.41152 16.2436 9.535C16.2533 9.65849 16.2893 9.77846 16.3494 9.88679C16.4094 9.99512 16.492 10.0893 16.5916 10.1629L22.8082 16.4313H6.26827C6.03897 16.4313 5.81905 16.5224 5.65691 16.6845C5.49476 16.8467 5.40367 17.0666 5.40367 17.2959C5.40367 17.5252 5.49476 17.7451 5.65691 17.9073C5.81905 18.0694 6.03897 18.1605 6.26827 18.1605H22.8082L16.5916 24.4289C16.43 24.5917 16.3396 24.812 16.3404 25.0415C16.3412 25.2709 16.4332 25.4906 16.596 25.6523C16.7588 25.814 16.9791 25.9043 17.2086 25.9035C17.438 25.9027 17.6577 25.8108 17.8194 25.648H17.7934Z"/>
</mask>
<path d="M17.7934 25.648L26.1023 17.2959L17.7934 8.94382C17.7184 8.84528 17.6231 8.76401 17.5139 8.70551C17.4047 8.64702 17.2842 8.61267 17.1606 8.60478C17.037 8.5969 16.9132 8.61566 16.7974 8.6598C16.6817 8.70395 16.5768 8.77244 16.4899 8.86065C16.4029 8.94885 16.3359 9.05471 16.2934 9.17106C16.2509 9.2874 16.234 9.41152 16.2436 9.535C16.2533 9.65849 16.2893 9.77846 16.3494 9.88679C16.4094 9.99512 16.492 10.0893 16.5916 10.1629L22.8082 16.4313H6.26827C6.03897 16.4313 5.81905 16.5224 5.65691 16.6845C5.49476 16.8467 5.40367 17.0666 5.40367 17.2959C5.40367 17.5252 5.49476 17.7451 5.65691 17.9073C5.81905 18.0694 6.03897 18.1605 6.26827 18.1605H22.8082L16.5916 24.4289C16.43 24.5917 16.3396 24.812 16.3404 25.0415C16.3412 25.2709 16.4332 25.4906 16.596 25.6523C16.7588 25.814 16.9791 25.9043 17.2086 25.9035C17.438 25.9027 17.6577 25.8108 17.8194 25.648H17.7934Z" fill="#F8F8F8"/>
<path d="M17.7934 25.648L12.1219 20.0058L-1.44961 33.648H17.7934V25.648ZM26.1023 17.2959L31.7738 22.9381L37.3868 17.2959L31.7738 11.6537L26.1023 17.2959ZM17.7934 8.94382L11.4288 13.7905L11.7491 14.2112L12.1219 14.586L17.7934 8.94382ZM16.5916 10.1629L22.272 4.52961L21.8401 4.09417L21.347 3.72964L16.5916 10.1629ZM22.8082 16.4313V24.4313H42.0089L28.4885 10.798L22.8082 16.4313ZM5.65691 16.6845L11.3138 22.3414L5.65691 16.6845ZM22.8082 18.1605L28.4885 23.7938L42.0089 10.1605H22.8082V18.1605ZM16.5916 24.4289L22.2685 30.0657L22.272 30.0622L16.5916 24.4289ZM17.8194 25.648L23.4962 31.2848L37.037 17.648H17.8194V25.648ZM23.465 31.2901L31.7738 22.9381L20.4308 11.6537L12.1219 20.0058L23.465 31.2901ZM31.7738 11.6537L23.465 3.30166L12.1219 14.586L20.4308 22.9381L31.7738 11.6537ZM24.1581 4.09709C23.3888 3.08677 22.4113 2.25354 21.2919 1.65381L13.7359 15.7572C12.8348 15.2745 12.048 14.6038 11.4288 13.7905L24.1581 4.09709ZM21.2919 1.65381C20.1725 1.05408 18.9373 0.701875 17.67 0.621016L16.6512 16.5885C15.6311 16.5235 14.6369 16.24 13.7359 15.7572L21.2919 1.65381ZM17.67 0.621016C16.4027 0.540155 15.1327 0.732544 13.9462 1.18514L19.6486 16.1345C18.6936 16.4988 17.6714 16.6536 16.6512 16.5885L17.67 0.621016ZM13.9462 1.18514C12.7597 1.63773 11.6843 2.33997 10.7927 3.24434L22.187 14.477C21.4693 15.2049 20.6037 15.7702 19.6486 16.1345L13.9462 1.18514ZM10.7927 3.24434C9.90122 4.1487 9.2144 5.23405 8.7788 6.42692L23.8081 11.9152C23.4574 12.8754 22.9046 13.749 22.187 14.477L10.7927 3.24434ZM8.7788 6.42692C8.3432 7.61978 8.16897 8.89231 8.26793 10.1584L24.2193 8.91162C24.2989 9.93072 24.1587 10.955 23.8081 11.9152L8.7788 6.42692ZM8.26793 10.1584C8.36689 11.4245 8.73673 12.6545 9.35236 13.7652L23.3464 6.00842C23.8419 6.90242 24.1396 7.89249 24.2193 8.91162L8.26793 10.1584ZM9.35236 13.7652C9.96801 14.8759 10.8151 15.8413 11.8363 16.5962L21.347 3.72964C22.169 4.33726 22.8508 5.11439 23.3464 6.00842L9.35236 13.7652ZM10.9113 15.7962L17.1278 22.0646L28.4885 10.798L22.272 4.52961L10.9113 15.7962ZM22.8082 8.43129H6.26827V24.4313H22.8082V8.43129ZM6.26827 8.43129C3.91724 8.43129 1.66249 9.36523 5.30542e-05 11.0277L11.3138 22.3414C9.97561 23.6795 8.16069 24.4313 6.26827 24.4313V8.43129ZM5.30542e-05 11.0277C-1.66237 12.6901 -2.59633 14.9448 -2.59633 17.2959H13.4037C13.4037 19.1883 12.6519 21.0032 11.3138 22.3414L5.30542e-05 11.0277ZM-2.59633 17.2959C-2.59633 19.647 -1.66237 21.9017 5.30542e-05 23.5641L11.3138 12.2504C12.6519 13.5885 13.4037 15.4035 13.4037 17.2959H-2.59633ZM5.30542e-05 23.5641C1.66249 25.2266 3.91724 26.1605 6.26827 26.1605V10.1605C8.16069 10.1605 9.97561 10.9123 11.3138 12.2504L5.30542e-05 23.5641ZM6.26827 26.1605H22.8082V10.1605H6.26827V26.1605ZM17.1278 12.5272L10.9113 18.7956L22.272 30.0622L28.4885 23.7938L17.1278 12.5272ZM10.9148 18.7921C9.25819 20.4604 8.33218 22.7186 8.34048 25.0698L24.3404 25.0132C24.3471 26.9055 23.6018 28.7229 22.2685 30.0657L10.9148 18.7921ZM8.34048 25.0698C8.34879 27.4209 9.29073 29.6724 10.9591 31.3291L22.2328 19.9755C23.5756 21.3088 24.3337 23.121 24.3404 25.0132L8.34048 25.0698ZM10.9591 31.3291C12.6275 32.9858 14.8857 33.9118 17.2368 33.9035L17.1803 17.9036C19.0726 17.8969 20.89 18.6422 22.2328 19.9755L10.9591 31.3291ZM17.2368 33.9035C19.588 33.8952 21.8396 32.9532 23.4962 31.2848L12.1426 20.0111C13.4759 18.6684 15.288 17.9103 17.1803 17.9036L17.2368 33.9035ZM17.8194 17.648H17.7934V33.648H17.8194V17.648Z" fill="white" mask="url(#path-2-inside-1_311_7)"/>
<defs>
<linearGradient id="paint0_linear_311_7" x1="38.4809" y1="-41.0616" x2="53.3572" y2="20.0008" gradientUnits="userSpaceOnUse">
<stop stop-color="#1F1F1F"/>
<stop offset="0.407499" stop-color="#FE2F61"/>
<stop offset="0.698463" stop-color="#FE6542"/>
<stop offset="1" stop-color="#F8A21C"/>
</linearGradient>
</defs>
</svg>
